<?xml version="1.0" encoding="utf-8"?>
<!-- Generator: Adobe Illustrator 17.0.0, SVG Export Plug-In . SVG Version: 6.00 Build 0)  -->
<!DOCTYPE svg PUBLIC "-//W3C//DTD SVG 1.1//EN" "http://www.w3.org/Graphics/SVG/1.1/DTD/svg11.dtd">
<svg version="1.1" id="Ebene_1" xmlns="http://www.w3.org/2000/svg" xmlns:xlink="http://www.w3.org/1999/xlink" x="0px" y="0px"
	 width="200px" height="50px" viewBox="0 0 200 50" enable-background="new 0 0 200 50" xml:space="preserve">
<g>
	<path fill="#FFFFFF" d="M41.381,6.942C38.273,3.793,32.266,1.16,25.602,1.07c-1.662-0.022-3.366,0.114-5.075,0.439
		C15.086,2.546,7.713,5.868,3.485,15.806c-2.254,5.297-2.86,10.435-1.801,15.271c1.41,6.444,5.882,12.077,12.271,15.455
		c3.937,2.082,8.225,3.144,12.344,3.144c2.805,0,5.532-0.493,8.015-1.492c0.999-0.402,1.483-1.538,1.081-2.537
		c-0.402-0.999-1.538-1.484-2.537-1.081c-5,2.012-11.546,1.444-17.08-1.482c-5.372-2.841-9.12-7.521-10.284-12.842
		c-0.882-4.03-0.35-8.374,1.58-12.91C10.628,8.977,16.749,6.2,21.257,5.34c7.141-1.361,14.269,1.221,17.348,4.341
		c4.571,4.631,4.718,13.578,2.535,19.645c-1.125,3.127-2.826,5.246-4.333,5.399c-1.157,0.119-2.521-0.921-3.892-2.931
		c2.183-1.373,3.17-4.151,2.178-6.624l-1.853-4.619l-1.179-2.939l-1.348-3.359c-0.279-0.696-1.167-0.994-1.863-0.715
		c-0.696,0.279-1.131,1.109-0.852,1.804l1.348,3.359l1.179,2.939c0.279,0.696-0.156,1.525-0.852,1.804
		c-0.696,0.279-1.584-0.019-1.863-0.715l-1.179-2.939l-1.348-3.359c-0.279-0.696-0.715-1.176-1.41-0.897s-0.679,0.927-0.399,1.623
		l1.348,3.359l1.179,2.939c0.279,0.696-0.156,1.525-0.852,1.804c-0.696,0.279-1.583-0.019-1.863-0.715l-1.179-2.939l-1.348-3.359
		c-0.279-0.696-1.167-0.994-1.863-0.715c-0.696,0.279-1.131,1.109-0.852,1.804l1.348,3.359l1.179,2.939l1.853,4.619
		c1.083,2.7,4.123,4.031,6.844,3.089c2.964,4.695,5.941,5.46,7.93,5.263c3.13-0.318,5.904-3.219,7.609-7.958
		C47.46,23.279,47.134,12.77,41.381,6.942z"/>
</g>
<g>
	<path fill="#FFFFFF" d="M53.192,10.551c1.849-0.378,4.495-0.588,7.016-0.588c3.906,0,6.427,0.714,8.191,2.31
		c1.428,1.26,2.226,3.193,2.226,5.377c0,3.739-2.352,6.217-5.335,7.226v0.126c2.185,0.756,3.487,2.772,4.159,5.713
		c0.924,3.949,1.597,6.68,2.185,7.771h-3.781c-0.462-0.798-1.092-3.234-1.89-6.764c-0.84-3.906-2.353-5.377-5.671-5.502h-3.445
		v12.266h-3.655V10.551z M56.847,23.448h3.739c3.907,0,6.385-2.143,6.385-5.377c0-3.655-2.646-5.251-6.511-5.293
		c-1.765,0-3.024,0.168-3.613,0.336V23.448z"/>
	<path fill="#FFFFFF" d="M77.889,28.992c0.084,4.999,3.276,7.058,6.973,7.058c2.646,0,4.243-0.462,5.629-1.05l0.63,2.646
		c-1.302,0.588-3.529,1.26-6.763,1.26c-6.259,0-9.998-4.116-9.998-10.25c0-6.133,3.613-10.963,9.536-10.963
		c6.637,0,8.402,5.839,8.402,9.578c0,0.756-0.084,1.345-0.126,1.722H77.889z M88.727,26.346c0.042-2.352-0.966-6.007-5.125-6.007
		c-3.739,0-5.377,3.445-5.671,6.007H88.727z"/>
	<path fill="#FFFFFF" d="M96.872,24.498c0-2.395-0.042-4.453-0.168-6.343h3.235l0.126,3.991h0.168
		c0.924-2.73,3.15-4.453,5.629-4.453c0.42,0,0.714,0.042,1.05,0.126v3.486c-0.378-0.084-0.756-0.126-1.26-0.126
		c-2.604,0-4.453,1.975-4.957,4.747c-0.084,0.503-0.168,1.091-0.168,1.722v10.838h-3.655V24.498z"/>
	<path fill="#FFFFFF" d="M112.244,28.992c0.084,4.999,3.276,7.058,6.973,7.058c2.646,0,4.243-0.462,5.63-1.05l0.63,2.646
		c-1.303,0.588-3.528,1.26-6.764,1.26c-6.259,0-9.997-4.116-9.997-10.25c0-6.133,3.612-10.963,9.535-10.963
		c6.638,0,8.401,5.839,8.401,9.578c0,0.756-0.084,1.345-0.126,1.722H112.244z M123.082,26.346c0.042-2.352-0.966-6.007-5.125-6.007
		c-3.738,0-5.377,3.445-5.671,6.007H123.082z"/>
	<path fill="#FFFFFF" d="M145.721,37.73c-0.967,0.504-3.109,1.176-5.84,1.176c-6.133,0-10.123-4.158-10.123-10.375
		c0-6.26,4.284-10.796,10.922-10.796c2.184,0,4.116,0.546,5.125,1.05l-0.841,2.856c-0.882-0.504-2.269-0.966-4.284-0.966
		c-4.663,0-7.184,3.444-7.184,7.687c0,4.705,3.024,7.604,7.058,7.604c2.1,0,3.486-0.546,4.536-1.008L145.721,37.73z"/>
	<path fill="#FFFFFF" d="M154.16,12.442c0.042,1.26-0.883,2.268-2.353,2.268c-1.303,0-2.227-1.008-2.227-2.268
		c0-1.302,0.966-2.311,2.311-2.311C153.277,10.131,154.16,11.14,154.16,12.442z M150.043,38.486V18.155h3.697v20.332H150.043z"/>
	<path fill="#FFFFFF" d="M159.871,24.792c0-2.604-0.084-4.705-0.168-6.637h3.318l0.168,3.486h0.084
		c1.513-2.478,3.907-3.948,7.226-3.948c4.915,0,8.611,4.159,8.611,10.333c0,7.31-4.452,10.922-9.241,10.922
		c-2.688,0-5.041-1.176-6.259-3.192h-0.085v11.048h-3.654V24.792z M163.525,30.211c0,0.546,0.085,1.051,0.169,1.512
		c0.672,2.563,2.898,4.327,5.545,4.327c3.906,0,6.175-3.192,6.175-7.855c0-4.075-2.143-7.561-6.049-7.561
		c-2.521,0-4.873,1.806-5.587,4.579c-0.126,0.462-0.253,1.009-0.253,1.513V30.211z"/>
	<path fill="#FFFFFF" d="M185.827,28.992c0.084,4.999,3.276,7.058,6.974,7.058c2.646,0,4.242-0.462,5.629-1.05l0.63,2.646
		c-1.303,0.588-3.528,1.26-6.764,1.26c-6.259,0-9.997-4.116-9.997-10.25c0-6.133,3.612-10.963,9.535-10.963
		c6.638,0,8.401,5.839,8.401,9.578c0,0.756-0.084,1.345-0.126,1.722H185.827z M196.665,26.346c0.042-2.352-0.966-6.007-5.125-6.007
		c-3.738,0-5.377,3.445-5.671,6.007H196.665z"/>
</g>
</svg>
